<?xml version='1.0' encoding='utf-8'?>
<!DOCTYPE svg PUBLIC '-//W3C//DTD SVG 1.1//EN' 'http://www.w3.org/Graphics/SVG/1.1/DTD/svg11.dtd'>
<svg version="1.1" xmlns="http://www.w3.org/2000/svg" viewBox="0 0 512 512" xmlns:xlink="http://www.w3.org/1999/xlink" enable-background="new 0 0 512 512">
  <g>
    <g>
      <path d="m256,74.8c11.3,0 20.4-9.1 20.4-20.4v-23c0-11.3-9.1-20.4-20.4-20.4-11.3,0-20.4,9.1-20.4,20.4v22.9c2.84217e-14,11.3 9.1,20.5 20.4,20.5z"/>
      <path d="m457.6,276.1h22.9c11.3,0 20.4-9.1 20.4-20.4 0-11.3-9.1-20.4-20.4-20.4h-22.9c-11.3,0-20.4,9.1-20.4,20.4-5.68434e-14,11.3 9.2,20.4 20.4,20.4z"/>
      <path d="m31.4,276.1h22.9c11.3,0 20.4-9.1 20.4-20.4 0-11.3-9.1-20.4-20.4-20.4h-22.9c-11.3,0-20.4,9.1-20.4,20.4 0,11.3 9.1,20.4 20.4,20.4z"/>
      <path d="m99,127.5c8,8 20.9,8 28.9,0 8-8 8-20.9 0-28.9l-16.2-16.2c-8-8-20.9-8-28.9,0-8,8-8,20.9 0,28.9l16.2,16.2z"/>
      <path d="m413,127.5l16.2-16.2c8-8 8-20.9 0-28.9-8-8-20.9-8-28.9,0l-16.2,16.2c-8,8-8,20.9 0,28.9 8,8 20.9,8 28.9,0z"/>
      <path d="m480.6,361.8h-85c22.4-29.9 35-66.5 35-104.5 0-96.2-78.3-174.4-174.6-174.4-96.3,0-174.6,78.2-174.6,174.4 0,38 12.6,74.6 35,104.5h-85c-11.3,0-20.4,9.1-20.4,20.4 0,11.3 9.1,20.4 20.4,20.4h449.2c11.3,0 20.4-9.1 20.4-20.4 0-11.3-9.1-20.4-20.4-20.4zm-307.7,0c-31.8-25.3-50.7-63.9-50.7-104.5 0-73.6 60-133.6 133.8-133.6s133.8,59.9 133.8,133.6c0,40.6-18.8,79.2-50.7,104.5h-166.2z"/>
      <path d="m406.7,460.2h-301.4c-11.3,0-20.4,9.1-20.4,20.4 0,11.3 9.1,20.4 20.4,20.4h301.4c11.3,0 20.4-9.1 20.4-20.4 5.68434e-14-11.3-9.1-20.4-20.4-20.4z"/>
    </g>
  </g>
</svg>
