<?xml version="1.0" encoding="iso-8859-1"?>
<!-- Generator: Adobe Illustrator 16.0.0, SVG Export Plug-In . SVG Version: 6.00 Build 0)  -->
<!DOCTYPE svg PUBLIC "-//W3C//DTD SVG 1.1//EN" "http://www.w3.org/Graphics/SVG/1.1/DTD/svg11.dtd">
<svg version="1.1" id="Capa_1" xmlns="http://www.w3.org/2000/svg" xmlns:xlink="http://www.w3.org/1999/xlink" x="0px" y="0px"
	 width="187.211px" height="187.211px" viewBox="0 0 187.211 187.211" style="enable-background:new 0 0 187.211 187.211;"
	 xml:space="preserve">
<g>
	<g>
		<path d="M112.387,34.959c5.544,5.66,10.226,11.869,13.926,18.376c8.595-5.006,18.726-8.378,30.015-9.17
			c-15.226,11.615-3.534,60.52-25.948,75.203l-0.407,0.65c48.627,0.856,37.054-77.567,57.239-95.069
			C156.712,11.304,129.753,18.811,112.387,34.959z"/>
		<path d="M76.293,74.053c17.129,17.753,24.288,97.465,24.288,97.465l13.929-14.327C114.509,157.184,104.313,87.751,76.293,74.053z"
			/>
		<path d="M139.648,56.843c-5.497,2.684-9.836,8.766-13.223,15.64C114.196,32.423,65.175-3.275,0,27.03
			c42.076,6.773,13.479,108.309,82.883,109.852c-23.782-11.508-10.435-51.427-27.461-77.47
			c46.946-7.438,66.788,41.946,60.204,67.717c10.923-11.278,15.007-26.279,13.465-41.612
			C131.485,73.884,134.96,61.693,139.648,56.843z"/>
	</g>
</g>
<g>
</g>
<g>
</g>
<g>
</g>
<g>
</g>
<g>
</g>
<g>
</g>
<g>
</g>
<g>
</g>
<g>
</g>
<g>
</g>
<g>
</g>
<g>
</g>
<g>
</g>
<g>
</g>
<g>
</g>
</svg>
