<?xml version="1.0" encoding="iso-8859-1"?>
<!-- Generator: Adobe Illustrator 16.0.0, SVG Export Plug-In . SVG Version: 6.00 Build 0)  -->
<!DOCTYPE svg PUBLIC "-//W3C//DTD SVG 1.1//EN" "http://www.w3.org/Graphics/SVG/1.1/DTD/svg11.dtd">
<svg version="1.1" id="Capa_1" xmlns="http://www.w3.org/2000/svg" xmlns:xlink="http://www.w3.org/1999/xlink" x="0px" y="0px"
	 width="862.988px" height="862.988px" viewBox="0 0 862.988 862.988" style="enable-background:new 0 0 862.988 862.988;"
	 xml:space="preserve">
<g>
	<g>
		<path d="M71.892,580.826h571.665l95.498-373.92l9.877-38.673h56.074h57.982v-68H696.115l-24.844,97.272l-46.5-0.016
			l20.621-105.185L408.255,45.815L388.09,148.679l-8.905-69.228L139.511,110.28l11.197,87.047L0,197.276L71.892,580.826z
			 M228.019,265.353l106.525,0.036l30.664,0.01l37.898,0.013l31.391,0.011l107.654,0.037l69.291,0.024l42.463,0.014L590.74,512.826
			H128.331L81.936,265.303l77.519,0.026L228.019,265.353z M461.904,125.625l103.676,20.325l-10.098,51.514l-107.654-0.037
			L461.904,125.625z M215.63,169.049l104.787-13.479l5.38,41.817l-106.526-0.036L215.63,169.049z"/>
		<path d="M553.557,817.173c58.055,0,105.285-47.231,105.285-105.285s-47.23-105.285-105.285-105.285H162.811
			c-58.055,0-105.285,47.231-105.285,105.285s47.23,105.285,105.285,105.285c58.055,0,105.285-47.231,105.285-105.285
			c0-13.123-2.42-25.689-6.826-37.285H455.1c-4.406,11.597-6.826,24.162-6.826,37.285
			C448.271,769.941,495.504,817.173,553.557,817.173z M200.096,711.888c0,20.559-16.726,37.285-37.285,37.285
			s-37.285-16.727-37.285-37.285s16.726-37.285,37.285-37.285S200.096,691.329,200.096,711.888z M590.842,711.888
			c0,20.559-16.727,37.285-37.285,37.285s-37.285-16.727-37.285-37.285s16.727-37.285,37.285-37.285
			S590.842,691.329,590.842,711.888z"/>
	</g>
</g>
<g>
</g>
<g>
</g>
<g>
</g>
<g>
</g>
<g>
</g>
<g>
</g>
<g>
</g>
<g>
</g>
<g>
</g>
<g>
</g>
<g>
</g>
<g>
</g>
<g>
</g>
<g>
</g>
<g>
</g>
</svg>
