<?xml version="1.0" encoding="iso-8859-1"?>
<!-- Generator: Adobe Illustrator 19.0.0, SVG Export Plug-In . SVG Version: 6.00 Build 0)  -->
<svg version="1.1" id="Layer_1" xmlns="http://www.w3.org/2000/svg" xmlns:xlink="http://www.w3.org/1999/xlink" x="0px" y="0px"
	 viewBox="0 0 512.001 512.001" style="enable-background:new 0 0 512.001 512.001;" xml:space="preserve">
<path style="fill:#F2F2F2;" d="M293.678,318.879l-53.355-53.355c-6.974-6.973-6.974-18.281,0-25.256
	c6.973-6.973,18.281-6.973,25.256,0l53.355,53.355c6.974,6.973,6.974,18.281,0,25.256
	C311.958,325.855,300.653,325.854,293.678,318.879z"/>
<path style="fill:#CDD6E0;" d="M240.323,240.269l78.611,78.611c6.974-6.973,6.974-18.281,0-25.256l-53.355-53.355
	C258.605,233.294,247.297,233.294,240.323,240.269z"/>
<path style="fill:#40596B;" d="M404.997,495.726L260.913,351.644c-6.97-6.967-6.974-18.284,0-25.256l65.529-65.529
	c6.967-6.97,18.284-6.974,25.256,0l144.083,144.084c21.625,21.622,21.628,56.622,0,78.25l-12.534,12.533
	C461.624,517.351,426.625,517.354,404.997,495.726z"/>
<path style="fill:#364C5C;" d="M326.442,260.86l-32.765,32.765L489.513,489.46l6.267-6.266c21.628-21.628,21.625-56.628,0-78.25
	L351.697,260.86C344.726,253.885,333.409,253.89,326.442,260.86z"/>
<path style="fill:#40596B;" d="M45.596,265.524c-60.792-60.792-60.797-159.185,0-219.983c60.648-60.648,159.333-60.65,219.982,0l0,0
	c60.792,60.792,60.798,159.186,0,219.983C204.786,326.318,106.392,326.322,45.596,265.524z"/>
<path style="fill:#364C5C;" d="M45.596,45.541L45.596,45.541l219.982,219.983c60.798-60.796,60.792-159.189,0-219.982
	C204.93-15.108,106.246-15.107,45.596,45.541z"/>
<path style="fill:#F8B64C;" d="M70.853,240.269c-46.833-46.833-46.838-122.634,0-169.471c46.742-46.742,122.73-46.739,169.469,0
	c46.83,46.832,46.841,122.631,0,169.47C193.49,287.1,117.692,287.108,70.853,240.269z"/>
<path style="fill:#F59D00;" d="M70.853,70.797L70.853,70.797l169.469,169.47l0,0c46.841-46.839,46.83-122.637,0-169.47
	C193.583,24.058,117.594,24.056,70.853,70.797z"/>
<path style="fill:#FFD15C;" d="M131.998,238.951c-7.928-5.868-9.598-17.05-3.73-24.978l30.035-40.58h-40.867
	c-14.643,0-23.063-16.719-14.355-28.484l51.118-69.065c5.867-7.928,17.052-9.597,24.978-3.73c7.928,5.868,9.598,17.05,3.73,24.978
	l-30.036,40.582h40.868c14.643,0,23.063,16.719,14.355,28.484l-51.118,69.063C151.113,243.144,139.932,244.823,131.998,238.951z"/>
<path style="fill:#F8B64C;" d="M179.177,72.115c-7.927-5.867-19.111-4.198-24.978,3.73l-33.303,44.996l69.385,69.385l17.814-24.068
	c8.708-11.763,0.288-28.484-14.355-28.484h-40.868l30.036-40.581C188.776,89.166,187.105,77.982,179.177,72.115z"/>
<g>
</g>
<g>
</g>
<g>
</g>
<g>
</g>
<g>
</g>
<g>
</g>
<g>
</g>
<g>
</g>
<g>
</g>
<g>
</g>
<g>
</g>
<g>
</g>
<g>
</g>
<g>
</g>
<g>
</g>
</svg>
