<svg xmlns="http://www.w3.org/2000/svg" viewBox="0 0 48 48"><path d="M44.45 19.27c-.18-.54-.65-.94-1.21-1.02l-12.36-1.8-5.53-11.2a1.506 1.506 0 0 0-2.7 0l-5.53 11.2-12.36 1.8c-.56.08-1.03.48-1.21 1.02-.18.54-.03 1.14.38 1.54l8.95 8.72-2.11 12.31a1.502 1.502 0 0 0 2.18 1.58L24 37.6l11.06 5.81c.22.12.46.17.7.17.31 0 .62-.1.88-.29.46-.34.69-.9.6-1.47l-2.11-12.31 8.95-8.72c.4-.38.54-.98.37-1.52zm-11.99 8.66c-.35.34-.52.84-.43 1.33l1.73 10.09-9.07-4.77c-.22-.11-.46-.17-.7-.17s-.48.06-.7.17l-9.07 4.77 1.73-10.09c.08-.49-.08-.98-.43-1.33L8.2 20.78l10.14-1.47c.49-.07.91-.38 1.13-.82L24 9.3l4.53 9.19c.22.44.64.75 1.13.82l10.14 1.47-7.34 7.15z"/></svg>